<svg id="award" xmlns="http://www.w3.org/2000/svg" width="52.139" height="63" viewBox="0 0 52.139 63">
  <g id="Group_17" data-name="Group 17">
    <g id="Group_16" data-name="Group 16">
      <path id="Path_7" data-name="Path 7" d="M91.906,54.731l-6.61-8.5a9.567,9.567,0,0,0,5.229-3.871c1.557-2.691.853-5.974.172-9.146a24.981,24.981,0,0,1-.735-4.975,24.973,24.973,0,0,1,.735-4.979c.677-3.174,1.385-6.455-.172-9.142-1.612-2.785-4.858-3.816-8-4.811a23.262,23.262,0,0,1-4.515-1.768A22.066,22.066,0,0,1,74.4,4.609C72.066,2.447,69.426,0,66.065,0s-6,2.447-8.331,4.608a22.072,22.072,0,0,1-3.617,2.934A23.256,23.256,0,0,1,49.6,9.306c-3.139.995-6.385,2.026-8,4.811-1.557,2.691-.853,5.974-.172,9.146a24.972,24.972,0,0,1,.734,4.979,24.972,24.972,0,0,1-.735,4.979c-.677,3.174-1.385,6.455.172,9.142a9.567,9.567,0,0,0,5.234,3.87l-6.615,8.5a1.086,1.086,0,0,0,.993,1.744l7.766-.97L50.9,62.213a1.086,1.086,0,0,0,.837.768,1.109,1.109,0,0,0,.206.02,1.086,1.086,0,0,0,.858-.419l6.937-8.922a10.044,10.044,0,0,0,6.326,2.824,10.044,10.044,0,0,0,6.326-2.824l6.937,8.919a1.086,1.086,0,0,0,.858.423,1.108,1.108,0,0,0,.206-.02,1.086,1.086,0,0,0,.837-.768l1.917-6.707,7.766.97a1.086,1.086,0,0,0,.993-1.744ZM52.4,59.558l-1.585-5.546a1.086,1.086,0,0,0-1.179-.779l-6.083.76,5.452-7.008.6.192a23.255,23.255,0,0,1,4.51,1.764,22.067,22.067,0,0,1,3.618,2.933l.374.345ZM66.065,54.31c-2.509,0-4.62-1.955-6.855-4.028A23.944,23.944,0,0,0,55.2,47.06,25.186,25.186,0,0,0,50.257,45.1c-2.871-.911-5.583-1.772-6.774-3.829-1.136-1.965-.55-4.7.073-7.6a26.6,26.6,0,0,0,.784-5.431,26.588,26.588,0,0,0-.783-5.431c-.622-2.9-1.209-5.637-.073-7.6,1.195-2.057,3.9-2.918,6.774-3.829A25.193,25.193,0,0,0,55.2,9.423,23.942,23.942,0,0,0,59.209,6.2c2.237-2.072,4.347-4.028,6.856-4.028S70.685,4.128,72.92,6.2a23.944,23.944,0,0,0,4.007,3.223,25.185,25.185,0,0,0,4.946,1.955c2.871.911,5.583,1.772,6.774,3.829,1.136,1.965.55,4.7-.073,7.6a26.6,26.6,0,0,0-.784,5.431,26.588,26.588,0,0,0,.783,5.431c.622,2.9,1.209,5.637.073,7.6-1.195,2.057-3.9,2.918-6.774,3.829a25.193,25.193,0,0,0-4.944,1.955,23.942,23.942,0,0,0-4.006,3.223C70.685,52.355,68.574,54.31,66.065,54.31ZM82.5,53.233a1.086,1.086,0,0,0-1.179.779l-1.59,5.546-5.707-7.337.374-.345a22.073,22.073,0,0,1,3.617-2.934,23.256,23.256,0,0,1,4.514-1.764l.6-.192,5.453,7.008Z" transform="translate(-39.995)" fill="#4c4c4d"/>
    </g>
  </g>
  <g id="Group_19" data-name="Group 19" transform="translate(6.518 8.69)">
    <g id="Group_18" data-name="Group 18">
      <path id="Path_8" data-name="Path 8" d="M107.552,64A19.552,19.552,0,1,0,127.1,83.552,19.552,19.552,0,0,0,107.552,64Zm0,36.931a17.379,17.379,0,1,1,17.379-17.379A17.379,17.379,0,0,1,107.552,100.931Z" transform="translate(-88 -64)" fill="#4c4c4d"/>
    </g>
  </g>
  <g id="Group_21" data-name="Group 21" transform="translate(13.119 14.986)">
    <g id="Group_20" data-name="Group 20" transform="translate(0)">
      <path id="Path_9" data-name="Path 9" d="M162.1,119.094a2.172,2.172,0,0,0-1.755-.894h-6.65l-2.064-6.329a2.172,2.172,0,0,0-4.128,0l-2.058,6.329H138.79a2.172,2.172,0,0,0-1.28,3.929l5.383,3.91-2.056,6.329a2.172,2.172,0,0,0,3.343,2.429l5.387-3.909,5.384,3.91a2.172,2.172,0,0,0,3.343-2.429l-2.056-6.33,5.383-3.91A2.172,2.172,0,0,0,162.1,119.094Zm-7.777,5.653a1.086,1.086,0,0,0-.394,1.215l2.3,7.08-6.023-4.375a1.086,1.086,0,0,0-1.276,0l-6.023,4.375,2.3-7.08a1.086,1.086,0,0,0-.394-1.214l-6.022-4.375h7.444a1.086,1.086,0,0,0,1.033-.751l2.3-7.08,2.3,7.079a1.086,1.086,0,0,0,1.033.751h7.444Z" transform="translate(-136.616 -110.376)" fill="#4c4c4d"/>
    </g>
  </g>
</svg>
