<svg id="Group_855" data-name="Group 855" xmlns="http://www.w3.org/2000/svg" xmlns:xlink="http://www.w3.org/1999/xlink" width="48.128" height="47.65" viewBox="0 0 48.128 47.65">
  <defs>
    <clipPath id="clip-path">
      <rect id="Rectangle_403" data-name="Rectangle 403" width="48.128" height="47.65" fill="none"/>
    </clipPath>
  </defs>
  <g id="Group_855-2" data-name="Group 855" clip-path="url(#clip-path)">
    <path id="Path_598" data-name="Path 598" d="M0,16.33a4.134,4.134,0,0,1,.6-.718Q8.023,8.191,15.44.759A1.729,1.729,0,0,1,16.674.2C18.145.145,19.614.05,21.085,0a3.267,3.267,0,0,1,3.539,3.446c-.024,1.6-.131,3.191-.2,4.787a1.31,1.31,0,0,1-.471.885c-1.41,1.4-2.8,2.822-4.229,4.209-.317.308-.26.447.029.716q13.367,12.427,26.719,24.87a5.045,5.045,0,0,1,1.345,1.608,3.029,3.029,0,0,1-.269,3.129,13.364,13.364,0,0,1-3.6,3.52,3.011,3.011,0,0,1-3.806-.454c-1.626-1.65-3.185-3.366-4.765-5.062Q24.935,30.451,14.507,19.236c-.275-.3-.41-.279-.682,0-1.614,1.641-3.249,3.262-4.877,4.89-.687.687-1.015.691-1.687.019Q3.872,20.753.486,17.363C.311,17.188.161,16.988,0,16.8v-.47M46.5,41.854a1.971,1.971,0,0,0-.771-1.435q-6.02-5.6-12.033-11.2-7.527-7.011-15.05-14.027c-.222-.207-.34-.216-.555.006q-1.191,1.233-2.424,2.424c-.214.207-.187.317,0,.52Q28.338,31.729,41,45.326a1.7,1.7,0,0,0,2.644.128c.8-.742,1.563-1.536,2.326-2.322a1.943,1.943,0,0,0,.536-1.278M22.939,5.44h.087c0-.688,0-1.377,0-2.065A1.672,1.672,0,0,0,21.21,1.61c-1.377.049-2.753.129-4.13.18a1.023,1.023,0,0,0-.732.346q-3.812,3.83-7.637,7.646-3.239,3.24-6.484,6.474c-.231.229-.241.345,0,.58Q5.03,19.61,7.808,22.415c.2.2.317.258.553.021Q15.477,15.3,22.611,8.18a.671.671,0,0,0,.228-.488c.021-.751.064-1.5.1-2.253" transform="translate(0 0.001)"/>
    <path id="Path_599" data-name="Path 599" d="M346.336,339.915a2,2,0,1,1-4-.037,2,2,0,0,1,4,.037m-2.007-.42c-.224.046-.375.165-.369.407a.343.343,0,0,0,.389.367.35.35,0,0,0,.372-.389c-.006-.241-.167-.35-.392-.385" transform="translate(-301.595 -297.69)"/>
  </g>
</svg>
