<svg id="Group_852" data-name="Group 852" xmlns="http://www.w3.org/2000/svg" xmlns:xlink="http://www.w3.org/1999/xlink" width="54.253" height="47.65" viewBox="0 0 54.253 47.65">
  <defs>
    <clipPath id="clip-path">
      <rect id="Rectangle_401" data-name="Rectangle 401" width="54.253" height="47.65" fill="none"/>
    </clipPath>
  </defs>
  <g id="Group_851" data-name="Group 851" clip-path="url(#clip-path)">
    <path id="Path_589" data-name="Path 589" d="M0,25.672a1.48,1.48,0,0,1,1.321-.518c1.784.019,3.569.007,5.354.008,1.129,0,1.406.272,1.406,1.378,0,1.322,0,2.643,0,4.06a12.736,12.736,0,0,1,7.166-1.854V10.823c-.553,0-1.112,0-1.671,0-.665,0-.972-.3-.978-1-.013-1.4,0-2.793,0-4.189,0-1.52,0-3.04,0-4.56C12.6.278,12.874,0,13.654,0Q33.215,0,52.777,0C53.6,0,53.94.34,53.941,1.184q.006,4.215,0,8.43a1.081,1.081,0,0,1-1.236,1.21c-.459,0-.918.011-1.377.016l-.084.092q-.007,5.7-.013,11.4,0,4.533.013,9.065l.083.092a3.545,3.545,0,0,1,1,6.655,13.029,13.029,0,0,1-2.478.784c-1.511.417-3.028.812-4.544,1.207-1.2.314-2.417.6-3.618.924-1.316.355-2.622.745-3.935,1.108-1.858.513-3.7,1.077-5.583,1.5a16.338,16.338,0,0,1-3.405.366c-4.468.04-8.938-.04-13.406.038a13.272,13.272,0,0,1-7.189-1.746l-.06-.077-.009.091Q8.089,44.4,8.081,46.46c0,.839-.346,1.18-1.187,1.18-1.921,0-3.841-.013-5.762.009A1.184,1.184,0,0,1,0,47.1Zm17.179,3.067c1.625.007,3.25.006,4.875.027a7.3,7.3,0,0,1,1.618.121c1.806.439,3.6.934,5.395,1.41,2.323.615,4.643,1.244,6.971,1.843a4.1,4.1,0,0,1,2.948,2.236l10.407-2.792V10.8H17.6c-.14,0-.281.016-.421.025l-.086.106c-.005,2.855-.015,5.711-.015,8.566q0,4.574.015,9.148l.086.1m4.508,13.479v.026c2.421,0,4.842.006,7.264,0a7.484,7.484,0,0,0,1.619-.109c1.779-.406,3.55-.851,5.315-1.313C37.9,40.29,39.9,39.731,41.91,39.18c1.316-.361,2.627-.742,3.946-1.093,1.779-.473,3.569-.9,5.342-1.4a1.792,1.792,0,1,0-1.039-3.431c-1.354.34-2.693.742-4.042,1.106-2.107.569-4.21,1.155-6.33,1.674a.771.771,0,0,0-.666.677,3.577,3.577,0,0,1-4.288,2.543c-1.93-.5-3.863-1-5.793-1.5-.643-.168-1.286-.339-1.92-.538a.976.976,0,0,1-.688-1.131.923.923,0,0,1,1.076-.642q3.6.98,7.2,1.97a2.142,2.142,0,0,0,2.185-.346,1.756,1.756,0,0,0-.622-2.951c-.952-.316-1.931-.55-2.9-.812q-3.653-.988-7.309-1.967a16.98,16.98,0,0,0-4.832-.8c-2.225.055-4.453.007-6.68.018a10.561,10.561,0,0,0-1.669.1,10.185,10.185,0,0,0-4.568,1.924.7.7,0,0,0-.226.493c-.015,2.227-.012,4.454,0,6.682a.494.494,0,0,0,.138.342,8.392,8.392,0,0,0,5.087,2.085c2.789.095,5.583.024,8.375.024M52.113,1.828H14.433V8.974h37.68ZM1.84,45.813H6.249V26.983H1.84Z" transform="translate(0 0)"/>
    <path id="Path_590" data-name="Path 590" d="M457.009,96.764l.084-.092Z" transform="translate(-405.764 -85.832)" fill="#d1d1d1"/>
    <path id="Path_591" data-name="Path 591" d="M457.092,280.085l-.084-.092.084.092" transform="translate(-405.763 -248.597)" fill="#d1d1d1"/>
    <path id="Path_592" data-name="Path 592" d="M72.211,376.851l.009-.091.06.077-.03.029Z" transform="translate(-64.114 -334.514)" fill="#b4b4b4"/>
    <path id="Path_593" data-name="Path 593" d="M152.524,96.517l-.086.106.086-.106" transform="translate(-135.345 -85.694)" fill="#f0f0f0"/>
    <path id="Path_594" data-name="Path 594" d="M152.438,255.431l.086.1-.086-.1" transform="translate(-135.345 -226.789)" fill="#f0f0f0"/>
    <path id="Path_595" data-name="Path 595" d="M253.167,114.081h-4.34a.906.906,0,1,1-.064-1.8q4.472-.014,8.945,0a.836.836,0,0,1,.887.878.883.883,0,0,1-.929.909c-1.5.017-3,.006-4.5.006Z" transform="translate(-219.995 -99.688)"/>
  </g>
</svg>
