<svg id="Group_854" data-name="Group 854" xmlns="http://www.w3.org/2000/svg" xmlns:xlink="http://www.w3.org/1999/xlink" width="50.297" height="47.65" viewBox="0 0 50.297 47.65">
  <defs>
    <clipPath id="clip-path">
      <rect id="Rectangle_402" data-name="Rectangle 402" width="50.297" height="47.65" fill="none"/>
    </clipPath>
  </defs>
  <g id="Group_853" data-name="Group 853" clip-path="url(#clip-path)">
    <path id="Path_596" data-name="Path 596" d="M0,38.719a.726.726,0,0,1,1.016-.346,1.231,1.231,0,0,1,.439.853,13.716,13.716,0,0,1,.019,1.712c.521-.384.991-.722,1.452-1.072,1.018-.773,2.018-1.57,3.054-2.316a.86.86,0,0,0,.4-.8c-.008-5.909.006-11.818-.022-17.727a1.277,1.277,0,0,1,.824-1.305c1.856-.918,3.7-1.858,5.547-2.795,1.606-.815,3.208-1.637,4.813-2.454,1.66-.846,3.323-1.686,4.981-2.537.544-.279,1.083-.569,1.608-.881a.56.56,0,0,0,.257-.387c.015-2.029.009-4.059.005-6.089,0-.029-.023-.058-.061-.146a2.955,2.955,0,0,0-.293.221c-.375.365-.734.747-1.12,1.1a.579.579,0,0,1-.891.01c-.239-.243-.443-.5-.209-.854a2.715,2.715,0,0,1,.317-.421q1.1-1.118,2.219-2.224a.893.893,0,0,1,1.278.011Q26.8,1.435,27.964,2.6c.383.385.448.828.124,1.093-.452.369-.713.385-1.16-.065-.319-.32-.635-.642-1.019-1.031-.013.189-.026.292-.026.4,0,1.866,0,3.732-.007,5.6a.551.551,0,0,0,.363.584c1.585.79,3.157,1.605,4.729,2.42.659.342.775.941.2,1.262a1.228,1.228,0,0,1-.984-.016c-1.565-.756-3.106-1.56-4.646-2.365a.881.881,0,0,0-.9,0c-2.543,1.3-5.094,2.6-7.641,3.893q-4.037,2.058-8.07,4.123c-.056.029-.106.068-.213.139,1.715.877,3.389,1.735,5.066,2.589,3.581,1.823,7.169,3.631,10.736,5.479a1.061,1.061,0,0,0,1.124,0c2.885-1.477,5.789-2.919,8.676-4.391,2.371-1.209,4.729-2.445,7.151-3.7-.82-.408-1.619-.8-2.41-1.2q-2.766-1.412-5.525-2.838c-.7-.364-.856-.642-.635-1.061.267-.506.642-.575,1.31-.235,1.076.548,2.148,1.1,3.225,1.65,1.914.971,3.824,1.952,5.751,2.9a1.2,1.2,0,0,1,.71,1.221q0,6.138,0,12.276c0,1.85,0,3.7,0,5.549a.709.709,0,0,0,.316.677c1.441,1.061,2.85,2.166,4.274,3.251a1.284,1.284,0,0,0,.326.117c0-.646.01-1.234,0-1.823-.009-.4.076-.715.538-.757.574-.051.911.147.925.643.035,1.21.038,2.423,0,3.633-.018.544-.419.829-.989.83q-1.719,0-3.437,0a.734.734,0,1,1-.024-1.467c.553-.016,1.107,0,1.775,0-.8-.62-1.524-1.181-2.249-1.736-.646-.494-1.289-.992-1.953-1.461a.593.593,0,0,0-.506-.056c-2.562,1.3-5.111,2.615-7.67,3.918-1.424.725-2.864,1.419-4.287,2.146-1.783.911-3.555,1.845-5.335,2.763a1.293,1.293,0,0,1-1.263-.139C22.773,46.588,21.2,45.8,19.641,45q-3.384-1.732-6.763-3.474a.761.761,0,0,1-.408-1.1c.2-.375.579-.444,1.078-.192Q18,42.49,22.46,44.749c.616.313,1.221.648,1.944,1.034v-.6q0-4.346,0-8.691c0-.712.2-.937.765-.921a.639.639,0,0,1,.657.523,2.357,2.357,0,0,1,.051.583q0,4.247,0,8.5V45.7c1.358-.692,2.656-1.358,3.957-2.017q3.173-1.608,6.349-3.211Q38.7,39.2,41.208,37.914a1.52,1.52,0,0,1,.212-.107c.917-.3,1.033-.951,1.025-1.838-.046-5.156-.022-10.312-.023-15.468,0-.18-.009-.359-.014-.539l-.079-.07c-.822.4-1.649.8-2.467,1.209q-3.062,1.541-6.117,3.1c-2.495,1.271-4.984,2.552-7.479,3.822a.618.618,0,0,0-.394.638c.021,1.423.006,2.847.011,4.27,0,.426-.122.775-.571.88-.589.138-.9-.128-.9-.787-.013-1.44-.015-2.88,0-4.319a.573.573,0,0,0-.387-.61c-2.425-1.212-4.838-2.447-7.252-3.678q-4.309-2.2-8.617-4.4c-.082-.042-.169-.074-.279-.122V37.328l2.462,1.264c.555.284.7.6.49,1.044a.906.906,0,0,1-1.217.26c-.718-.38-1.444-.744-2.154-1.139a.582.582,0,0,0-.733.058c-1.338,1.032-2.688,2.05-4.129,3.145.633,0,1.173-.008,1.712,0,.563.011.81.259.8.776a.639.639,0,0,1-.676.692c-1.227.009-2.455.029-3.68-.021-.256-.01-.5-.3-.751-.466V38.719" transform="translate(0 0.001)" fill="#010101"/>
    <path id="Path_597" data-name="Path 597" d="M322.618,151.613l.079.07-.079-.07" transform="translate(-280.289 -131.721)" fill="#eaeaea"/>
    <rect id="Rectangle_406" data-name="Rectangle 406" width="12" height="4" rx="2" transform="translate(18.964 17)" fill="#010101"/>
  </g>
</svg>
