<svg id="Group_850" data-name="Group 850" xmlns="http://www.w3.org/2000/svg" xmlns:xlink="http://www.w3.org/1999/xlink" width="40.821" height="47.65" viewBox="0 0 40.821 47.65">
  <defs>
    <clipPath id="clip-path">
      <rect id="Rectangle_400" data-name="Rectangle 400" width="40.821" height="47.65" fill="none"/>
    </clipPath>
  </defs>
  <g id="Group_849" data-name="Group 849" clip-path="url(#clip-path)">
    <path id="Path_578" data-name="Path 578" d="M19.038,0a3.652,3.652,0,0,1,1.717,1.013,2.744,2.744,0,0,1,.7,1.677c.024.489.179.647.659.663a15.205,15.205,0,0,1,1.787.1,2.58,2.58,0,0,1,2.063,1.77.429.429,0,0,0,.494.324c2.2-.007,4.405,0,6.608,0A2.265,2.265,0,0,1,35.29,6.916,2.538,2.538,0,0,1,35.5,7.927q.03,2.652,0,5.3a1.066,1.066,0,0,1-.286.709.77.77,0,0,1-.691.149.878.878,0,0,1-.388-.651q-.048-2.651-.012-5.3c.01-.8-.377-1.256-1.14-1.159a6.846,6.846,0,0,1-.8,0v.508q0,4.956,0,9.912c0,.622-.146.754-.752.851a.442.442,0,0,1-.565-.342,2.26,2.26,0,0,1-.076-.635q-.007-4.886,0-9.772V6.968H26.14a1.5,1.5,0,0,0-.025.356A1.771,1.771,0,0,1,24.3,9.171q-6.561-.035-13.122,0c-1.164,0-1.944-.793-1.928-2.2H4.718v.51q0,17.148,0,34.295c0,.721,0,.722.715.722,3.04,0,6.08-.006,9.12.008a.569.569,0,0,0,.6-.388c.643-1.322,1.261-2.661,1.994-3.933a20.619,20.619,0,0,1,1.706-2.3c.926-1.187,1.866-2.363,2.806-3.538.924-1.154,1.858-2.3,2.783-3.453,1.087-1.355,2.165-2.716,3.252-4.071.8-1,1.613-1.99,2.413-2.99.817-1.02,1.622-2.05,2.438-3.07.924-1.154,1.837-2.318,2.792-3.445A5.2,5.2,0,0,1,36.7,14.052a2.821,2.821,0,0,1,3.592.831,2.9,2.9,0,0,1-.171,3.559c-1.079,1.3-2.1,2.645-3.151,3.964-.923,1.155-1.862,2.3-2.787,3.449-1.086,1.354-2.162,2.717-3.248,4.072-.935,1.165-1.885,2.318-2.818,3.485-1.054,1.318-2.092,2.65-3.147,3.967-.955,1.191-1.9,2.388-2.9,3.547-.467.545-1.034,1-1.624,1.567H30.1c.651,0,.682-.031.682-.68q0-4.933,0-9.865c0-.32.018-.652.375-.758a.878.878,0,0,1,.665.027.918.918,0,0,1,.342.644q.031,5.165.006,10.33A1.787,1.787,0,0,1,30.344,43.9c-3.645-.021-7.29.008-10.935-.024a2.016,2.016,0,0,0-1.512.586,4.568,4.568,0,0,1-.711.576,1.659,1.659,0,0,1-2.581-1.146h-2.59c-2.28,0-4.561-.023-6.84.012a1.825,1.825,0,0,1-1.8-1.258,1.961,1.961,0,0,1-.048-.4q0-17.4,0-34.807V6.982a6.321,6.321,0,0,0-1.307.026c-.223.049-.421.337-.568.558-.081.123-.043.331-.043.5q0,18.52,0,37.04a1.732,1.732,0,0,0,.1.764.872.872,0,0,0,.867.389q8.632-.013,17.264-.006H32.95c.864,0,1.163-.3,1.163-1.188q0-8.492,0-16.985c0-.14-.008-.28,0-.419.026-.336.084-.649.521-.675a.728.728,0,0,1,.867.61,1.894,1.894,0,0,1,.005.279q0,8.678-.006,17.357a2.265,2.265,0,0,1-1.743,2.35,1.413,1.413,0,0,1-.4.061q-15.7.005-31.41,0A2.272,2.272,0,0,1,0,45.7c-.008-.32,0-.641,0-.961q0-18.287,0-36.575A2.5,2.5,0,0,1,.427,6.421a1.959,1.959,0,0,1,1.445-.828c2.263-.04,4.527-.037,6.791-.049.232,0,.464,0,.723,0a2.694,2.694,0,0,1,1.794-2,10.651,10.651,0,0,1,2.111-.276c.7-.044.692-.018.725-.7A2.906,2.906,0,0,1,16.158.092,1.065,1.065,0,0,0,16.339,0ZM21.18,39.842,36.124,21.2c-.726-.586-1.406-1.146-2.105-1.68-.056-.043-.288.054-.366.147-.556.665-1.091,1.348-1.636,2.022C31.079,22.848,30.135,24,29.2,25.169c-1.086,1.354-2.161,2.717-3.247,4.071-1.048,1.307-2.108,2.6-3.156,3.912q-1.441,1.8-2.868,3.6c-.333.42-.662.843-1,1.276l2.252,1.811M17.687,7.765h1.023c1.828,0,3.656-.006,5.484,0,.391,0,.575-.112.529-.538a5.649,5.649,0,0,1,0-1.021,1.425,1.425,0,0,0-1.437-1.462c-.449-.012-.9.018-1.348-.006a1.815,1.815,0,0,1-1.867-1.858A1.325,1.325,0,0,0,18.9,1.5a12.786,12.786,0,0,0-2.248-.089,1.431,1.431,0,0,0-1.235,1.4A1.8,1.8,0,0,1,13.9,4.643a13.482,13.482,0,0,1-1.781.1,1.328,1.328,0,0,0-1.132.623,2.484,2.484,0,0,0-.327,1.477c0,.908.011.919.891.919h6.135M36.988,20.1c.748-.921,1.536-1.793,2.2-2.749a1.356,1.356,0,0,0-.3-1.914,1.521,1.521,0,0,0-1.939.115c-.753.874-1.465,1.783-2.23,2.721L36.988,20.1M15.966,43.653c.183.312.35.355.637.076.356-.346.782-.617,1.168-.932.8-.653,1.594-1.313,2.407-1.984l-2.006-1.581-2.206,4.42" transform="translate(0)"/>
    <path id="Path_579" data-name="Path 579" d="M138,107.123c-1.566,0-3.132,0-4.7-.005a.975.975,0,0,1-.6-.126.871.871,0,0,1-.31-.649c.05-.22.325-.4.53-.567.081-.065.237-.047.36-.047q4.745,0,9.49,0c.527,0,.815.207.847.584.048.555-.185.807-.779.809-1.613.005-3.225,0-4.838,0" transform="translate(-115.923 -92.581)"/>
    <path id="Path_580" data-name="Path 580" d="M137.855,130.8c1.612,0,3.224,0,4.836,0,.508,0,.731.22.736.665a.661.661,0,0,1-.7.727c-.031,0-.062,0-.093,0q-4.79,0-9.58,0c-.455,0-.891-.352-.884-.691.008-.421.353-.7.9-.7,1.6,0,3.193,0,4.79,0" transform="translate(-115.734 -114.534)"/>
    <path id="Path_581" data-name="Path 581" d="M137.834,186.055c1.6,0,3.193,0,4.79,0,.532,0,.784.223.793.668.01.472-.243.717-.793.723-.961.011-1.922,0-2.883,0q-3.255,0-6.51,0c-.671,0-1.1-.291-1.075-.726s.416-.669,1.075-.669h4.6" transform="translate(-115.723 -162.921)"/>
    <path id="Path_582" data-name="Path 582" d="M64.671,269.592c.723-1.044,1.405-2.061,2.13-3.046a1.019,1.019,0,0,1,.692-.394.878.878,0,0,1,.609.418.719.719,0,0,1-.063.628c-.756,1.131-1.519,2.26-2.333,3.35a1.289,1.289,0,0,1-1.924.126c-.5-.432-.976-.892-1.449-1.354a.653.653,0,0,1-.1-.949.751.751,0,0,1,1.065-.027c.449.394.885.8,1.375,1.247" transform="translate(-54.353 -233.06)"/>
    <path id="Path_583" data-name="Path 583" d="M64.677,188.442c.725-1.037,1.416-2.03,2.114-3.019.227-.321.469-.589.939-.379.415.185.611.573.357.946-.792,1.163-1.584,2.328-2.429,3.452-.467.622-1.247.6-1.953.008-.47-.4-.911-.827-1.35-1.257a.652.652,0,0,1-.066-1.013.753.753,0,0,1,1.025.029c.446.4.885.8,1.362,1.232" transform="translate(-54.36 -161.971)"/>
    <path id="Path_584" data-name="Path 584" d="M64.608,106.547c.592-.832,1.161-1.632,1.73-2.433q.223-.314.44-.632a.758.758,0,0,1,.969-.271.65.65,0,0,1,.207.971c-.748,1.115-1.5,2.233-2.3,3.31a1.3,1.3,0,0,1-2,.1c-.422-.4-.9-.739-1.306-1.146-.216-.214-.491-.456-.294-.851a.71.71,0,0,1,1.066-.3c.495.378.955.8,1.485,1.253" transform="translate(-54.282 -90.304)"/>
    <path id="Path_585" data-name="Path 585" d="M135.377,210.984c.758,0,1.516,0,2.275,0,.573,0,.845.236.842.7,0,.447-.286.689-.829.69q-2.3,0-4.6,0c-.524,0-.9-.3-.9-.694,0-.425.338-.7.891-.7.774-.005,1.547,0,2.321,0" transform="translate(-115.732 -184.751)"/>
    <path id="Path_586" data-name="Path 586" d="M154.489,177.223l-2.252-1.811c.339-.433.668-.856,1-1.276q1.432-1.8,2.868-3.6c1.048-1.307,2.108-2.605,3.156-3.912,1.086-1.354,2.161-2.717,3.247-4.071.934-1.164,1.878-2.321,2.816-3.482.545-.675,1.08-1.357,1.636-2.022.078-.093.31-.19.366-.148.7.535,1.379,1.094,2.105,1.68l-14.944,18.644" transform="translate(-133.309 -137.382)" fill="#fefefe"/>
    <path id="Path_587" data-name="Path 587" d="M281.548,126.761l-2.264-1.827c.764-.938,1.477-1.847,2.23-2.721a1.521,1.521,0,0,1,1.939-.115,1.356,1.356,0,0,1,.3,1.915c-.669.956-1.457,1.828-2.2,2.749" transform="translate(-244.559 -106.66)" fill="#fefefe"/>
    <path id="Path_588" data-name="Path 588" d="M128.411,319.961l2.206-4.42,2.006,1.581c-.813.671-1.607,1.331-2.407,1.984-.386.315-.813.586-1.169.932-.287.279-.454.236-.637-.076" transform="translate(-112.445 -276.308)" fill="#fefefe"/>
  </g>
</svg>
