<svg id="Group_848" data-name="Group 848" xmlns="http://www.w3.org/2000/svg" xmlns:xlink="http://www.w3.org/1999/xlink" width="48.083" height="47.648" viewBox="0 0 48.083 47.648">
  <defs>
    <clipPath id="clip-path">
      <rect id="Rectangle_399" data-name="Rectangle 399" width="48.083" height="47.648" fill="#fff"/>
    </clipPath>
  </defs>
  <g id="Group_848-2" data-name="Group 848" clip-path="url(#clip-path)">
    <path id="Path_567" data-name="Path 567" d="M237.147,218.537a1.673,1.673,0,0,1-.745.523,27.817,27.817,0,0,1-19.593-.033c-.641-.236-.767-.477-.635-1.143q.4-2.023.8-4.047a7.7,7.7,0,0,1,5.269-6.009c.38-.142.766-.265,1.191-.411a5.268,5.268,0,0,1-2.045-4.583,5.06,5.06,0,0,1,1.7-3.5,5.273,5.273,0,1,1,6.772,8.073c.515.188,1.026.356,1.522.558a7.8,7.8,0,0,1,5.025,6.433,31.63,31.63,0,0,0,.741,3.572Zm-10.13.774a25.925,25.925,0,0,0,8.154-1.407c.278-.094.363-.19.3-.491q-.357-1.625-.66-3.262a5.984,5.984,0,0,0-3.595-4.605,10.634,10.634,0,0,0-9.122-.021,5.956,5.956,0,0,0-3.6,4.39c-.244,1.146-.449,2.3-.7,3.445-.072.332.016.447.333.554a26.987,26.987,0,0,0,8.888,1.4m-4.144-16.08a3.755,3.755,0,1,0,3.717-3.758,3.767,3.767,0,0,0-3.717,3.758" transform="translate(-189.064 -173.177)" fill="#fff"/>
    <path id="Path_568" data-name="Path 568" d="M0,217.966a35.535,35.535,0,0,0,.743-3.572,8.039,8.039,0,0,1,2.619-5,10.1,10.1,0,0,1,3.506-1.836c.133-.044.268-.082.461-.141a5.276,5.276,0,0,1-2.038-4.765,5.035,5.035,0,0,1,1.851-3.47,5.259,5.259,0,0,1,7.279.5,5.314,5.314,0,0,1-.7,7.722c.283.093.537.173.79.259a7.931,7.931,0,0,1,5.76,6.62c.2,1.218.472,2.423.713,3.633a.793.793,0,0,1-.6,1.086A27.784,27.784,0,0,1,8.32,220.719a28.333,28.333,0,0,1-7.486-1.636A1.759,1.759,0,0,1,0,218.529ZM11,219.3a26.292,26.292,0,0,0,7.965-1.366c.393-.127.455-.293.372-.664q-.35-1.554-.639-3.122a5.935,5.935,0,0,0-3.421-4.527,10.624,10.624,0,0,0-8.99-.243,6.058,6.058,0,0,0-3.9,4.518c-.246,1.146-.451,2.3-.7,3.445-.071.326,0,.45.324.559A27.186,27.186,0,0,0,11,219.3m-.473-19.838a3.756,3.756,0,1,0,3.744,3.778,3.761,3.761,0,0,0-3.744-3.778" transform="translate(0 -173.17)" fill="#fff"/>
    <path id="Path_569" data-name="Path 569" d="M147.248,0c.848.124,1.7.216,2.543.379a14.969,14.969,0,0,1,7.386,3.434,7.22,7.22,0,0,1,2.461,4.159,6.408,6.408,0,0,1-1.75,5.565,12.449,12.449,0,0,1-6.448,3.706,1.576,1.576,0,0,0-1.426,1.517c-.168,1.25-.512,2.476-.763,3.716-.081.4-.227.727-.664.8s-.679-.21-.892-.547c-.9-1.427-1.828-2.839-2.715-4.275a1.015,1.015,0,0,0-.9-.524,16.88,16.88,0,0,1-8.439-2.8,8.317,8.317,0,0,1-3.3-3.979c-.967-2.671-.162-4.95,1.724-6.91A13.731,13.731,0,0,1,140.609.667,18.374,18.374,0,0,1,144.07.079,2.5,2.5,0,0,0,144.431,0Zm.866,20.583c.271-1.3.518-2.439.746-3.585a.952.952,0,0,1,.847-.859,13.154,13.154,0,0,0,2.126-.564,11.328,11.328,0,0,0,5.021-3.158,4.921,4.921,0,0,0,.055-6.779,8.894,8.894,0,0,0-3.07-2.349,18.577,18.577,0,0,0-14.63-.606,9.865,9.865,0,0,0-4.556,3.1,4.913,4.913,0,0,0,.033,6.5,9.343,9.343,0,0,0,2.994,2.371,16.149,16.149,0,0,0,6.835,1.8,1.693,1.693,0,0,1,1.571.936c.6,1.054,1.3,2.056,2.029,3.2" transform="translate(-115.412)" fill="#fff"/>
    <path id="Path_570" data-name="Path 570" d="M79.161,52c1.17-.743,2.227-1.4,3.273-2.086a1.349,1.349,0,0,1,.973-.231,19.116,19.116,0,0,0,6.989-.344,2.191,2.191,0,0,1,.23-.046.748.748,0,1,1,.3,1.464,19.971,19.971,0,0,1-2.955.5,19.7,19.7,0,0,1-4.5-.057.791.791,0,0,0-.558.189q-2.138,1.358-4.273,2.72c-.335.215-.666.375-1.037.113a.84.84,0,0,1-.263-1.007c.234-.972.425-1.954.664-2.925a.509.509,0,0,0-.337-.708,10.839,10.839,0,0,1-4.319-3.367c-2.067-2.792-1.7-6.244.924-8.824a12.826,12.826,0,0,1,4.119-2.643.752.752,0,0,1,1.065.355.743.743,0,0,1-.467,1.02,11.567,11.567,0,0,0-3.521,2.2A5.5,5.5,0,0,0,73.53,42.2a5.417,5.417,0,0,0,1.981,4.188,11.237,11.237,0,0,0,3.405,2.12c.81.34.895.5.71,1.359-.144.669-.292,1.336-.466,2.131" transform="translate(-63.002 -30.317)" fill="#fff"/>
    <path id="Path_571" data-name="Path 571" d="M190.438,67.446c-1.36,0-2.721-.009-4.081.007-.308,0-.433-.05-.431-.4.008-1.109-.008-1.109,1.122-1.109,2.47,0,4.941.008,7.411-.008.367,0,.515.055.5.472-.03,1.038-.007,1.039-1.053,1.039h-3.471" transform="translate(-162.646 -57.679)" fill="#fff"/>
    <path id="Path_572" data-name="Path 572" d="M226.123,89.956c1.219,0,2.439.009,3.658-.006.3,0,.436.043.434.4-.007,1.112.009,1.112-1.118,1.112-2.236,0-4.471-.01-6.707.01-.381,0-.463-.114-.456-.47.018-1.042,0-1.042,1.047-1.042h3.142" transform="translate(-194.144 -78.686)" fill="#fff"/>
    <path id="Path_573" data-name="Path 573" d="M205.853,41.962c.515,0,1.031.012,1.546-.005.253-.009.307.086.314.323.038,1.185.046,1.184-1.135,1.184-.75,0-1.5-.016-2.249.007-.315.01-.386-.1-.386-.4,0-1.114-.012-1.114,1.112-1.114h.8" transform="translate(-178.407 -36.703)" fill="#fff"/>
    <path id="Path_574" data-name="Path 574" d="M271.51,43.34c-.515,0-1.032-.021-1.546.007-.413.022-.354-.278-.294-.461.114-.345-.358-.962.274-1.021,1.053-.1,2.122-.021,3.184-.031.23,0,.279.084.289.3.06,1.208.066,1.207-1.111,1.207h-.8" transform="translate(-235.848 -36.579)" fill="#fff"/>
    <path id="Path_575" data-name="Path 575" d="M271.745,67.452c-.5,0-1-.014-1.5.006-.271.011-.335-.084-.341-.345-.024-1.163-.033-1.163,1.11-1.163.765,0,1.531.014,2.3-.007.294-.008.362.086.365.37.01,1.14.02,1.14-1.134,1.14h-.8" transform="translate(-236.104 -57.685)" fill="#fff"/>
    <path id="Path_576" data-name="Path 576" d="M187.418,91.447c-.39,0-.781-.016-1.171.006-.274.015-.333-.089-.338-.347-.024-1.161-.032-1.161,1.111-1.161.515,0,1.031.018,1.545-.007.3-.014.36.092.362.372.01,1.138.02,1.137-1.135,1.137h-.375" transform="translate(-162.625 -78.675)" fill="#fff"/>
    <path id="Path_577" data-name="Path 577" d="M246.764,43.5c-.764,0-.764,0-.763-.891,0-.612,0-.612.9-.611.6,0,.6,0,.6.961,0,.541,0,.541-.739.541" transform="translate(-215.198 -36.742)" fill="#fff"/>
  </g>
</svg>
